<svg xmlns="http://www.w3.org/2000/svg" viewBox="73 71 192 194">
  <path fill="#f8a5c2" d="M89 146c6 2 8 7 7 12 0 6-5 10-12 9-8-1-11-7-10-12 0-5 4-9 10-9l-1 5c-3 0-4 2-5 4 0 4 2 6 6 7 5 1 7-1 8-5 0-2-1-5-4-6Zm-4-25 5 1-4 7 17 8-2 4-17-7-3 7-4-2Zm16-21 10 23-3 4-3-7-16-4 3-5 10 3-4-9Zm31-1 5 7-4 3-2-4-12 9 2 4-3 2-5-7 2-1h-1c2-1-2-10-7-16l11-9 11 14Zm-7 5-8-11-4 4c4 5 5 9 5 12Zm16-27 2 4-10 4 1 4 9-4 1 4-8 4 2 4 10-4 1 4-14 6-8-20Zm12 6 9-1-1-8 5-1 3 22h-5l-1-9-9 1 1 10h-5l-3-22h5Zm40-7-1 5-7-2-3 18-5-1 3-17-8-2 1-4Zm21 9-8 12 17-6 4 2-12 19-4-2 8-13-17 7-4-3 12-18Zm31 27-24 7-3-4 7-3 6-15 4 4-4 10 10-3Zm-3 32-8 4-2-4 4-2-8-15 20-10 2 4-16 8 4 8 16-8 2 4-16 8Zm21 15-4 1-2-7-17 3-1-5 17-3-2-8 5-1Zm-16 31c-6-2-8-6-7-12 0-5 5-9 12-8 8 1 11 6 10 12 0 5-4 8-10 9l1-5c3-1 4-3 5-5 0-3-2-6-6-7-5 0-7 2-8 5 0 3 1 5 4 6Zm4 26-4-2 3-7-16-7 1-5 17 7 3-7 4 2Zm-16 20-10-22 3-4 3 7 16 4-3 4-10-3 4 10Zm-31 1-5-7 4-3 2 4 12-9-2-3 3-3 5 7-2 2 1-1c-2 2 2 10 7 17l-11 8-11-14Zm7-5 8 11 4-3c-4-6-5-9-5-13Zm-16 28-2-5 10-4-1-3-9 3-1-4 8-3-2-5-10 4-1-4 14-6 8 21Zm-12-7-9 2 1 8h-5l-3-21 5-1 1 9 9-1-1-9 5-1 3 22-5 1Zm-40 7 1-4 7 1 3-17h5l-3 18 8 1-1 4Zm-21-9 8-12-17 7-4-3 12-19 4 3-8 12 17-6 4 2-12 19Zm-31-26 24-7 3 4-7 2-6 15-4-4 4-9-10 3Zm3-32 8-4 2 4-4 2 8 15-20 10-2-4 16-8-4-8-16 8-2-4 16-8Zm-21-16 4-1 2 8 17-4 1 5-17 4 2 7-5 1Z"/>
  <path fill="#fff" d="M89 145c6 2 8 7 8 12-1 5-6 9-13 8-8-1-11-6-10-12 1-5 5-9 10-9l-1 5c-2 0-4 2-4 5-1 3 1 6 5 7 5 0 8-2 8-5 1-3-1-5-4-6Zm-3-26 4 2-3 7 16 7-2 5-16-8-3 7-4-2Zm16-20 10 23-3 4-4-7-16-5 4-4 10 3-4-10Zm31 0 5 7-4 2-2-3-12 8 2 4-3 3-5-8 2-1h-1c2-1-2-10-7-16l12-9 10 15v-1Zm-7 4-8-10-4 3c4 5 6 9 5 12Zm17-27 2 5-11 3 2 4 8-3 2 4-9 3 2 5 10-4 2 4-15 6-8-21Zm12 7 9-1-1-9h5l2 22h-5l-1-9-9 1 1 9-5 1-2-22 5-1Zm40-6-1 4-8-1-3 17-4-1 3-17-8-1 1-5Zm21 9-8 12 16-6 4 2-12 19-4-3 8-12-17 6-3-2 12-19Zm30 27-24 7-3-4 7-3 7-15 3 5-4 9 10-3Zm-4 32-7 4-2-4 4-2-8-15 20-10 2 4-16 8 4 8 16-8 2 4-16 8Zm21 16-4 1-2-8-17 3-1-5 17-3-1-7 4-1Zm-16 30c-6-1-8-6-8-11 1-6 6-10 13-9 8 1 11 7 10 12s-5 9-10 9l1-5c2 0 4-2 5-4 0-4-2-6-6-7-5-1-8 1-8 4-1 3 1 6 4 6Zm3 26-4-2 3-7-16-7 2-4 16 7 3-7 4 2Zm-16 20-10-22 3-4 4 7 16 4-4 4-10-3 4 10Zm-31 1-5-7 4-3 2 4 12-9-2-4 3-2 5 7-2 2 1-1c-2 2 2 10 7 17l-12 8-10-14Zm7-5 8 11 4-3c-4-6-6-9-5-13Zm-17 27-1-4 10-4-2-4-8 3-2-4 9-3-2-4-10 3-2-4 15-5 8 21Zm-12-6-9 1 1 8h-5l-2-22h5l1 9 9-1-1-9h5l2 21-5 1Zm-40 6 1-5 8 2 3-18 5 1-4 18 8 1-1 4Zm-20-10 7-12-16 7-4-3 12-18 4 2-8 12 17-6 4 3-13 18Zm-31-27 24-6 4 4-8 2-7 15-3-4 4-9-10 3Zm4-32 8-3 1 4-4 1 8 16-20 9-2-4 16-7-4-8-16 7-2-4 16-8Zm-21-15 4-1 2 7 17-3 1 5-17 3 1 8-4 1Z"/>
</svg>
